<svg xmlns="http://www.w3.org/2000/svg" viewBox="0 0 267 267"><defs><style>.cls-1{fill:currentColor;}</style></defs><g id="Camada_2" data-name="Camada 2"><g id="Camada_1-2" data-name="Camada 1"><path class="cls-1" d="M227.9,39.1A188,188,0,0,1,133.5,0,188,188,0,0,1,39.1,39.1,188,188,0,0,1,0,133.49a188,188,0,0,1,39.1,94.4A187.85,187.85,0,0,1,133.49,267a188,188,0,0,1,94.41-39.11A188,188,0,0,1,267,133.5,188,188,0,0,1,227.9,39.1ZM133.5,216A82.5,82.5,0,1,1,216,133.5,82.5,82.5,0,0,1,133.5,216Z"/></g></g></svg>