<svg xmlns="http://www.w3.org/2000/svg" viewBox="0 0 770.28 145.91"><defs><style>.cls-1{fill:currentColor;}</style></defs><g id="Camada_2" data-name="Camada 2"><g id="Camada_1-2" data-name="Camada 1"><path class="cls-1" d="M124.55,21.36A102.68,102.68,0,0,1,73,0,102.72,102.72,0,0,1,21.37,21.36,102.78,102.78,0,0,1,0,73a102.69,102.69,0,0,1,21.37,51.59A102.75,102.75,0,0,1,73,145.91a102.73,102.73,0,0,1,51.6-21.37A102.64,102.64,0,0,1,145.91,73,102.8,102.8,0,0,1,124.55,21.36ZM71.63,100A45.21,45.21,0,0,1,35.07,55.67a44.56,44.56,0,0,1,.81-8.54,45.2,45.2,0,0,1,80.25,12.44C100.92,43.1,81.69,44.42,74.29,45.86A45.23,45.23,0,0,1,110,98.77h0A45.2,45.2,0,0,1,29.79,86.34C45,102.81,64.23,101.49,71.63,100Z"/><path class="cls-1" d="M218,27.87h22.73L249,55.68l8.38-27.81h22.74L264.83,70.92l6.47,18.42,19.44-61.47h26.92l-34,90.17H262.16L249,85.78,235.87,118H214.4l-34-90.17h26.8l19.56,61.47L233,70.92Z"/><path class="cls-1" d="M384.17,118H360.7V82.37q0-4.7-2.16-6.81a7.37,7.37,0,0,0-5.37-2.11,8.74,8.74,0,0,0-3.65,1,15.49,15.49,0,0,0-4.14,3,14.34,14.34,0,0,0-3.08,4.67V118H318.83V27.87H342.3V63.63a22.44,22.44,0,0,1,9.08-8,27.86,27.86,0,0,1,12.41-2.74q6.91,0,11,2.25a15.07,15.07,0,0,1,6,5.77,23.09,23.09,0,0,1,2.65,7.53,44.4,44.4,0,0,1,.68,7.53Z"/><path class="cls-1" d="M394.78,47.63V27.87h23.48V47.63Zm0,70.41v-65h23.48v65Z"/><path class="cls-1" d="M474.76,113.17c-2.11.9-4.37,1.73-6.76,2.5a51.21,51.21,0,0,1-7.31,1.77,45.54,45.54,0,0,1-7.25.6,25.86,25.86,0,0,1-9.63-1.73,14.56,14.56,0,0,1-7-5.73q-2.62-4-2.62-10.8V71h-7.92V53.58h7.92V33.47h23.16V53.58h12.55V71H457.34V91.44c0,2,.44,3.47,1.34,4.29A5.18,5.18,0,0,0,462.33,97a14.6,14.6,0,0,0,3.9-.61,44.26,44.26,0,0,0,4.39-1.46Z"/><path class="cls-1" d="M512.17,118a40.77,40.77,0,0,1-15-2.58,31.72,31.72,0,0,1-11-7,30.23,30.23,0,0,1-6.77-10.2,32.26,32.26,0,0,1-2.31-12.12,35.16,35.16,0,0,1,4-16.7,30.73,30.73,0,0,1,11.82-12.21q7.8-4.6,19.25-4.61t19.26,4.57a30.67,30.67,0,0,1,11.82,12,33.54,33.54,0,0,1,4,16.2q0,1.8-.18,3.66c-.12,1.24-.27,2.34-.43,3.3h-45a9.35,9.35,0,0,0,1.89,5.27,9.51,9.51,0,0,0,4.15,3,14.92,14.92,0,0,0,5.18.92,15.56,15.56,0,0,0,7.12-1.7A8.58,8.58,0,0,0,524.48,95l19.62,5.61a28.51,28.51,0,0,1-7.13,9,34.48,34.48,0,0,1-10.78,6.15A41,41,0,0,1,512.17,118Zm-11-39.6h21.2a11.21,11.21,0,0,0-1.77-5A9.57,9.57,0,0,0,517,70.2a12.34,12.34,0,0,0-10.36,0A9.67,9.67,0,0,0,503,73.4,11.32,11.32,0,0,0,501.21,78.44Z"/><path class="cls-1" d="M608.23,57.67a84.1,84.1,0,0,0-7.76-4.07,65.24,65.24,0,0,0-7.64-2.81,27.85,27.85,0,0,0-8.14-1.26,11.59,11.59,0,0,0-5.14,1,3.44,3.44,0,0,0-2,3.35,4.16,4.16,0,0,0,2,3.6,20.92,20.92,0,0,0,5.7,2.48q3.69,1.11,8.83,2.73a77.83,77.83,0,0,1,14.28,5.71,24.66,24.66,0,0,1,9.27,8.25q3.25,5,3.25,13.34A28.1,28.1,0,0,1,618,103.34a23.26,23.26,0,0,1-7.76,8.62,33.54,33.54,0,0,1-10.9,4.66A53.06,53.06,0,0,1,587.06,118a71.42,71.42,0,0,1-13.33-1.31,90.82,90.82,0,0,1-13.47-3.63,71.19,71.19,0,0,1-11.9-5.45l10.52-21.42A92.16,92.16,0,0,0,568,91.12a70.84,70.84,0,0,0,9.2,3.38A35.85,35.85,0,0,0,587.44,96q4,0,5.57-1a3.09,3.09,0,0,0,1.57-2.69,4.43,4.43,0,0,0-2.76-4,40.93,40.93,0,0,0-7.2-2.73q-4.44-1.3-9.83-3A55.42,55.42,0,0,1,562,76.56a21.17,21.17,0,0,1-7.38-7.83,23.44,23.44,0,0,1-2.38-11q0-9.82,4.63-16.42a29.37,29.37,0,0,1,12.21-10,39.27,39.27,0,0,1,16.35-3.42A50.36,50.36,0,0,1,598,29.43a82.36,82.36,0,0,1,11.4,3.82c3.55,1.5,6.66,2.93,9.33,4.26Z"/><path class="cls-1" d="M627.46,95.19V53.58h23.15V89.82a9.85,9.85,0,0,0,1.89,6.39,6.3,6.3,0,0,0,5.18,2.34,15.15,15.15,0,0,0,3.65-.46,11,11,0,0,0,3.72-1.85,17.71,17.71,0,0,0,3.72-3.93V53.58h23.15V91.35c0,2.15.33,3.65,1,4.48a4.67,4.67,0,0,0,3.41,1.5v19.5c-2,.4-3.86.71-5.48.91a35.6,35.6,0,0,1-4.27.3q-5.85,0-9.26-2.17a10,10,0,0,1-4.39-6.61l-.49-2.28a25.87,25.87,0,0,1-10.78,8.48,37.09,37.09,0,0,1-14.2,2.58q-9.63,0-14.8-5.89T627.46,95.19Z"/><path class="cls-1" d="M770.28,116.83H747.13V81.63c0-3.09-.72-5.33-2.14-6.72a6.87,6.87,0,0,0-4.93-2.08,9.37,9.37,0,0,0-4.15,1.1,14.27,14.27,0,0,0-4,3,15.64,15.64,0,0,0-2.92,4.5v35.35H705.81V53.58h20.84v9.57a20.37,20.37,0,0,1,5.85-5.81,26.92,26.92,0,0,1,8.17-3.54,40.21,40.21,0,0,1,10.11-1.2q6.59,0,10.48,2.28a15.19,15.19,0,0,1,5.85,5.87,23.28,23.28,0,0,1,2.56,7.49,46,46,0,0,1,.61,7.13Z"/></g></g></svg>