<svg xmlns="http://www.w3.org/2000/svg" viewBox="0 0 643.21 121.6"><defs><style>.cls-1{fill:currentColor;}</style></defs><g id="Camada_2" data-name="Camada 2"><g id="Camada_1-2" data-name="Camada 1"><path class="cls-1" d="M37.6,15.66H60.33l8.26,27.82L77,15.66H99.71L84.46,58.72l6.48,18.42,19.43-61.48H137.3l-34,90.18H81.8L68.59,73.58,55.5,105.84H34L0,15.66H26.8L46.36,77.14l6.22-18.42Z"/><path class="cls-1" d="M203.81,105.84H180.34V70.17q0-4.71-2.16-6.81a7.37,7.37,0,0,0-5.37-2.11,8.74,8.74,0,0,0-3.65,1,15.28,15.28,0,0,0-4.14,3A14.52,14.52,0,0,0,161.93,70v35.83H138.46V15.66h23.47V51.43a22.67,22.67,0,0,1,9.08-8,28.07,28.07,0,0,1,12.42-2.73q6.91,0,11,2.25a15,15,0,0,1,6.06,5.77,23.32,23.32,0,0,1,2.65,7.53,45.45,45.45,0,0,1,.68,7.53Z"/><path class="cls-1" d="M214.42,35.43V15.66h23.47V35.43Zm0,70.41v-65h23.47v65Z"/><path class="cls-1" d="M294.4,101c-2.11.89-4.37,1.73-6.76,2.5a50.17,50.17,0,0,1-7.31,1.76,44.46,44.46,0,0,1-7.26.61,25.84,25.84,0,0,1-9.62-1.73,14.56,14.56,0,0,1-7-5.73c-1.75-2.66-2.62-6.27-2.62-10.8V58.8H245.9V41.38h7.92V21.27H277V41.38h12.55V58.8H277V79.24c0,2,.44,3.47,1.34,4.29A5.18,5.18,0,0,0,282,84.76a14.6,14.6,0,0,0,3.9-.61c1.46-.41,2.93-.89,4.39-1.46Z"/><path class="cls-1" d="M331.81,105.84a40.86,40.86,0,0,1-15-2.58,31.91,31.91,0,0,1-11-7A30.2,30.2,0,0,1,299,86a32.27,32.27,0,0,1-2.31-12.13,35.15,35.15,0,0,1,4-16.69A30.66,30.66,0,0,1,312.56,45q7.8-4.6,19.25-4.61T351.07,45a30.7,30.7,0,0,1,11.82,12,33.54,33.54,0,0,1,4,16.2q0,1.8-.18,3.66c-.12,1.24-.27,2.34-.43,3.3h-45a9.18,9.18,0,0,0,1.89,5.26,9.46,9.46,0,0,0,4.14,3,14.78,14.78,0,0,0,5.18.93,15.46,15.46,0,0,0,7.13-1.71,8.53,8.53,0,0,0,4.45-4.75l19.62,5.61a28.61,28.61,0,0,1-7.13,9,34.61,34.61,0,0,1-10.78,6.16A41,41,0,0,1,331.81,105.84Zm-11-39.6h21.2a11.12,11.12,0,0,0-1.77-5,9.57,9.57,0,0,0-3.65-3.2,12.24,12.24,0,0,0-10.36,0,9.6,9.6,0,0,0-3.66,3.2A11.23,11.23,0,0,0,320.85,66.24Z"/><path class="cls-1" d="M478,17.8A85.57,85.57,0,0,1,435,0a85.6,85.6,0,0,1-43,17.8,85.56,85.56,0,0,1-17.8,43,85.69,85.69,0,0,1,17.8,43,85.49,85.49,0,0,1,43,17.81,85.61,85.61,0,0,1,43-17.81,85.53,85.53,0,0,1,17.81-43A85.58,85.58,0,0,1,478,17.8Zm-44.1,65.57a37.67,37.67,0,0,1-30.47-37,37,37,0,0,1,.68-7.11A37.66,37.66,0,0,1,471,49.64C458.33,35.92,442.3,37,436.13,38.22a37.71,37.71,0,0,1,29.8,44.09h0A37.67,37.67,0,0,1,399.05,72C411.72,85.67,427.75,84.58,433.92,83.37Z"/><path class="cls-1" d="M500.38,83V41.38h23.16V77.61a9.86,9.86,0,0,0,1.89,6.4,6.27,6.27,0,0,0,5.18,2.33,14.78,14.78,0,0,0,3.65-.46A10.78,10.78,0,0,0,538,84a17,17,0,0,0,3.71-3.93V41.38h23.16V79.15c0,2.15.32,3.64,1,4.48a4.7,4.7,0,0,0,3.42,1.5v19.49c-2,.41-3.86.71-5.49.92a35.31,35.31,0,0,1-4.26.3q-5.85,0-9.26-2.17a10,10,0,0,1-4.39-6.61l-.49-2.28a26,26,0,0,1-10.78,8.48,37.09,37.09,0,0,1-14.2,2.58q-9.63,0-14.81-5.89T500.38,83Z"/><path class="cls-1" d="M643.21,104.62H620.05V69.43q0-4.64-2.13-6.72A6.89,6.89,0,0,0,613,60.63a9.3,9.3,0,0,0-4.14,1.1,14.27,14.27,0,0,0-4,3.05,15.88,15.88,0,0,0-2.93,4.5v35.34H578.74V41.38h20.84v9.56a20.62,20.62,0,0,1,5.85-5.81,27,27,0,0,1,8.16-3.53,40.29,40.29,0,0,1,10.12-1.2q6.59,0,10.48,2.28A15.13,15.13,0,0,1,640,48.55,23.2,23.2,0,0,1,642.6,56a47.23,47.23,0,0,1,.61,7.13Z"/></g></g></svg>